# File created by Blade
# Date/Time:  Tue Sep 23 19:06:47 2014
# Frame Rate: 120.000 fps
#------------------------------------------------------
:FULLY-SPECIFIED
:DEGREES
697
root 2.177322 34.667177 -5.524104 58.984025 -11.406365 -47.888821
Spine -47.010629 31.256581 11.019346
Head -2.093496 2.582369 22.952314
LeftShoulder -18.651410 17.401255 40.029220
LeftArm 51.226695 -78.685478 -2.277912
LeftForeArm 101.550104 -0.000000 14.388245
LeftHand -16.211385 -0.000000 61.531879
LeftHandThumb1 -26.253704 0.000000 33.147579
RightShoulder -10.206147 -7.231536 -20.381178
RightArm 112.167804 37.771018 149.035811
RightForeArm 48.989955 0.000000 62.453661
RightHand -0.611942 0.000000 24.759781
RightHandThumb1 -24.326973 -0.000000 -32.862282
LeftUpLeg -41.277124 26.821514 33.970235
LeftLeg 18.714362 -0.000000 -0.000000
LeftFoot -12.387323 24.799465 3.647085
LeftToeBase 3.806267 -0.000000 -0.000000
RightUpLeg -181.546242 -37.833060 55.487028
RightLeg -6.610552 -0.000000 0.000000
RightFoot 29.425268 -23.969367 18.863763
RightToeBase 32.274085 -0.000000 -0.000000
698
root 2.187700 34.643372 -5.475329 59.148330 -11.624878 -47.759019
Spine -47.120351 31.304353 10.895464
Head -2.229487 2.705400 22.792909
LeftShoulder -18.695669 17.353931 40.005532
LeftArm 50.781950 -78.556594 -1.876485
LeftForeArm 101.482848 -0.000000 14.319328
LeftHand -16.140044 -0.000000 61.461135
LeftHandThumb1 -26.253704 0.000000 33.147579
RightShoulder -10.150688 -7.174173 -20.320274
RightArm 112.128758 37.829503 148.942625
RightForeArm 49.117064 -0.000000 62.362281
RightHand -0.643890 -0.000000 24.946175
RightHandThumb1 -24.326973 -0.000000 -32.862282
LeftUpLeg -41.573034 27.115967 33.459745
LeftLeg 18.934798 -0.000000 -0.000000
LeftFoot -12.242625 24.387367 3.854157
LeftToeBase 2.707966 -0.000000 -0.000000
RightUpLeg -181.482198 -37.611716 55.365976
RightLeg -6.638971 -0.000000 0.000000
RightFoot 29.691275 -23.851088 18.661313
RightToeBase 31.830197 -0.000000 -0.000000
699
root 2.194798 34.622318 -5.423479 59.233117 -11.724205 -47.606684
Spine -47.134215 31.282195 10.905586
Head -2.442705 2.832473 22.609817
LeftShoulder -18.704039 17.291633 39.967994
LeftArm 50.275135 -78.521602 -1.534219
LeftForeArm 101.419172 -0.000000 14.395221
LeftHand -16.070612 -0.000000 61.453354
LeftHandThumb1 -26.253704 0.000000 33.147579
RightShoulder -10.158594 -6.988260 -20.287564
RightArm 112.000283 37.936905 148.754419
RightForeArm 49.211744 0.000000 62.284346
RightHand -0.683302 -0.000000 24.933714
RightHandThumb1 -24.326973 -0.000000 -32.862282
LeftUpLeg -41.860458 27.335842 33.023508
LeftLeg 19.174900 -0.000000 -0.000000
LeftFoot -12.207630 24.141196 3.947223
LeftToeBase 2.447859 -0.000000 -0.000000
RightUpLeg -181.450878 -37.488544 55.390989
RightLeg -6.755448 -0.000000 0.000000
RightFoot 29.528948 -23.982935 19.209563
RightToeBase 31.991549 -0.000000 -0.000000
700
root 2.202303 34.608418 -5.371464 59.318876 -11.784275 -47.517655
Spine -47.124589 31.314228 10.995934
Head -2.673925 2.967808 22.388299
LeftShoulder -18.707597 17.305865 39.853825
LeftArm 49.933194 -78.638113 -1.326143
LeftForeArm 101.780769 -0.000000 14.382122
LeftHand -16.208844 -0.000000 61.455013
LeftHandThumb1 -26.253704 0.000000 33.147579
RightShoulder -10.164067 -6.812027 -20.299380
RightArm 111.953711 38.016726 148.686354
RightForeArm 49.309912 -0.000000 62.232367
RightHand -0.803089 -0.000000 25.043695
RightHandThumb1 -24.326973 -0.000000 -32.862282
LeftUpLeg -42.065670 27.516380 32.695276
LeftLeg 19.318562 -0.000000 -0.000000
LeftFoot -12.067883 23.975243 4.403465
LeftToeBase 1.873492 -0.000000 -0.000000
RightUpLeg -181.377413 -37.405281 55.445355
RightLeg -6.850398 -0.000000 0.000000
RightFoot 29.413180 -23.917705 19.208169
RightToeBase 32.085986 -0.000000 -0.000000
701
root 2.207098 34.597061 -5.313350 59.327654 -11.788213 -47.390904
Spine -47.044918 31.273404 11.155208
Head -2.902424 3.082150 22.154254
LeftShoulder -18.758138 17.278632 39.828996
LeftArm 51.074855 -78.819514 -2.828880
LeftForeArm 101.586602 -0.000000 14.727427
LeftHand -16.103640 -0.000000 61.400587
LeftHandThumb1 -26.253704 0.000000 33.147579
RightShoulder -10.142510 -6.713769 -20.332796
RightArm 111.991002 38.075289 148.696923
RightForeArm 49.381344 -0.000000 62.210874
RightHand -0.834511 0.000000 25.067998
RightHandThumb1 -24.326973 -0.000000 -32.862282
LeftUpLeg -42.182103 27.530482 32.452355
LeftLeg 19.398438 -0.000000 -0.000000
LeftFoot -11.798666 23.855841 4.954787
LeftToeBase 1.397483 -0.000000 -0.000000
RightUpLeg -181.331491 -37.352242 55.575431
RightLeg -7.035942 -0.000000 0.000000
RightFoot 29.360152 -24.057932 19.450598
RightToeBase 32.141190 -0.000000 -0.000000
